<svg width="40" height="40" viewBox="0 0 40 40" fill="none" xmlns="http://www.w3.org/2000/svg">
<path d="M-0.569256 40.5714H40.5692V-0.571411H-0.569256V40.5714ZM40.1402 40.1404H-0.140282V-0.14037H40.1402V40.1404Z" fill="#465EFF"/>
<path fill-rule="evenodd" clip-rule="evenodd" d="M23.153 27.554L26.4775 25.3126L10.6699 14.6013L20.429 8.00632L25.019 11.1098L21.4585 13.4805L29.6733 18.9979L36.5583 14.4288L19.9786 3.32953L3.52749 14.3857L23.153 27.554ZM16.9114 12.3598L13.5869 14.6013L29.3945 25.3126L19.6139 31.9075L15.0239 28.8041L18.5844 26.4549L10.3481 20.9376L3.46315 25.5066L20.0858 36.5843L36.494 25.5712L16.9114 12.3598ZM29.802 32.1877L33.1909 29.8601L36.6227 32.1877L36.5798 36.6705L29.802 32.1877ZM10.1122 7.89856L6.70189 10.2262L3.37735 8.00632V3.41574L10.1122 7.89856Z" fill="#465EFF"/>
</svg>
